<svg id="Layer_3" enable-background="new 0 0 64 64" height="512" viewBox="0 0 64 64" width="512" xmlns="http://www.w3.org/2000/svg"><path d="m24 9h28v2h-28z"/><path d="m24 13h28v2h-28z"/><path d="m24 17h28v2h-28z"/><path d="m24 21h28v2h-28z"/><path d="m59 33h-3v-27c0-.552-.448-1-1-1h-3v-3c0-.552-.448-1-1-1h-42c-.552 0-1 .448-1 1v31h-3c-2.206 0-4 1.794-4 4v26h2v-26c0-1.103.897-2 2-2h54c1.103 0 2 .897 2 2v26h2v-26c0-2.206-1.794-4-4-4zm-5 0h-40v-18h7c.552 0 1-.448 1-1v-7h32zm-38.586-20 4.586-4.586v4.586zm-5.414-10h40v2h-29c-.276 0-.526.112-.707.293l-7.999 7.999c-.182.182-.294.432-.294.708v19h-2z"/><path d="m50 29h2v2h-2z"/><path d="m46 29h2v2h-2z"/><path d="m42 29h2v2h-2z"/><path d="m38 29h2v2h-2z"/><path d="m38 25h14v2h-14z"/><path d="m5 39h28v2h-28z"/><path d="m5 43h14v2h-14z"/><path d="m45 37c-7.168 0-13 5.832-13 13s5.832 13 13 13 13-5.832 13-13-5.832-13-13-13zm0 24c-6.065 0-11-4.935-11-11s4.935-11 11-11 11 4.935 11 11-4.935 11-11 11z"/><path d="m51 49h-1v-3c0-2.757-2.243-5-5-5s-5 2.243-5 5v3h-1c-.552 0-1 .448-1 1v6c0 .552.448 1 1 1h12c.552 0 1-.448 1-1v-6c0-.552-.448-1-1-1zm-9-3c0-1.654 1.346-3 3-3s3 1.346 3 3v3h-6zm8 9h-10v-4h10z"/></svg>