<svg height="512pt" viewBox="0 0 512 512" width="512pt" xmlns="http://www.w3.org/2000/svg" style="fill:#fff"><path d="m512 256c0-17.375-6.105469-34.210938-17.011719-47.539062 4.976563-16.484376 4.171875-34.375-2.476562-50.429688-6.648438-16.050781-18.730469-29.269531-33.90625-37.410156-1.710938-17.132813-9.300781-33.355469-21.585938-45.640625-12.289062-12.285157-28.507812-19.875-45.640625-21.585938-8.140625-15.175781-21.359375-27.257812-37.410156-33.910156-16.054688-6.644531-33.945312-7.449219-50.429688-2.472656-13.328124-10.90625-30.164062-17.011719-47.539062-17.011719s-34.210938 6.105469-47.539062 17.011719c-16.484376-4.976563-34.375-4.171875-50.429688 2.476562-16.050781 6.648438-29.269531 18.730469-37.410156 33.90625-17.132813 1.710938-33.355469 9.300781-45.640625 21.585938-12.285157 12.285156-19.875 28.507812-21.585938 45.644531-15.175781 8.136719-27.257812 21.359375-33.90625 37.410156-6.648437 16.050782-7.453125 33.941406-2.476562 50.429688-10.90625 13.324218-17.011719 30.160156-17.011719 47.535156s6.105469 34.210938 17.011719 47.539062c-4.976563 16.484376-4.171875 34.375 2.476562 50.429688 6.648438 16.050781 18.730469 29.269531 33.90625 37.410156 1.710938 17.132813 9.300781 33.355469 21.585938 45.640625 12.285156 12.285157 28.507812 19.875 45.640625 21.585938 8.140625 15.175781 21.359375 27.257812 37.410156 33.910156 16.054688 6.644531 33.945312 7.449219 50.429688 2.476563 13.328124 10.902343 30.164062 17.007812 47.539062 17.007812s34.210938-6.105469 47.539062-17.011719c16.484376 4.976563 34.375 4.171875 50.429688-2.476562 16.050781-6.648438 29.269531-18.730469 37.410156-33.90625 17.132813-1.710938 33.355469-9.300781 45.640625-21.585938 12.285157-12.285156 19.875-28.507812 21.585938-45.644531 15.175781-8.136719 27.257812-21.359375 33.90625-37.410156 6.648437-16.050782 7.453125-33.941406 2.476562-50.429688 10.90625-13.324218 17.011719-30.160156 17.011719-47.535156zm-44.496094 33.070312-8.023437 7.402344 4.578125 9.910156c5.335937 11.550782 5.597656 24.371094.738281 36.101563-4.859375 11.734375-14.109375 20.613281-26.050781 25.007813l-10.242188 3.773437.4375 10.90625c.507813 12.710937-4.15625 24.652344-13.136718 33.632813-8.976563 8.980468-20.917969 13.648437-33.632813 13.136718l-10.910156-.4375-3.769531 10.242188c-4.394532 11.941406-13.273438 21.191406-25.007813 26.050781-11.730469 4.859375-24.550781 4.597656-36.101563-.738281l-9.910156-4.578125-7.402344 8.023437c-8.625 9.347656-20.371093 14.496094-33.070312 14.496094s-24.445312-5.148438-33.070312-14.496094l-7.40625-8.023437-9.910157 4.578125c-11.546875 5.335937-24.371093 5.597656-36.097656.738281-11.734375-4.859375-20.617187-14.109375-25.007813-26.050781l-3.773437-10.242188-10.90625.4375c-12.707031.519532-24.65625-4.15625-33.636719-13.136718-8.976562-8.976563-13.640625-20.921876-13.132812-33.632813l.4375-10.90625-10.246094-3.773437c-11.9375-4.394532-21.1875-13.273438-26.046875-25.007813-4.859375-11.730469-4.597656-24.550781.734375-36.101563l4.578125-9.910156-8.019531-7.402344c-9.347656-8.628906-14.496094-20.371093-14.496094-33.070312s5.148438-24.441406 14.496094-33.070312l8.023437-7.40625-4.578125-9.910157c-5.335937-11.546875-5.597656-24.367187-.738281-36.097656 4.859375-11.734375 14.109375-20.613281 26.050781-25.007813l10.242188-3.773437-.4375-10.90625c-.507813-12.710937 4.15625-24.65625 13.136718-33.636719 8.976563-8.976562 20.917969-13.644531 33.632813-13.132812l10.910156.4375 3.769531-10.242188c4.394532-11.941406 13.273438-21.191406 25.007813-26.050781 11.730469-4.859375 24.550781-4.597656 36.101563.738281l9.910156 4.578125 7.402344-8.023437c8.625-9.347656 20.371093-14.496094 33.070312-14.496094s24.445312 5.148438 33.070312 14.496094l7.402344 8.023437 9.910156-4.578125c11.550782-5.335937 24.371094-5.597656 36.101563-.738281 11.734375 4.859375 20.617187 14.109375 25.007813 26.050781l3.773437 10.242188 10.90625-.4375c12.707031-.511719 24.65625 4.15625 33.636719 13.132812 8.976562 8.980469 13.640625 20.925782 13.132812 33.636719l-.4375 10.90625 10.246094 3.773437c11.9375 4.394532 21.1875 13.273438 26.046875 25.007813 4.859375 11.730469 4.597656 24.550781-.734375 36.101563l-4.578125 9.910156 8.019531 7.402344c9.347656 8.628906 14.496094 20.371093 14.496094 33.070312s-5.148438 24.441406-14.496094 33.070312zm0 0"/><path d="m256 76c-99.253906 0-180 80.746094-180 180s80.746094 180 180 180 180-80.746094 180-180-80.746094-180-180-180zm0 330c-82.710938 0-150-67.289062-150-150s67.289062-150 150-150 150 67.289062 150 150-67.289062 150-150 150zm0 0"/><path d="m256 141.222656-49.140625 56.160156-56.542969-12.925781 25.316406 164.542969h160.734376l25.316406-164.542969-56.542969 12.925781zm54.632812 177.777344h-109.265624l-4.613282-30h118.492188zm9.230469-60h-127.726562l-5.453125-35.457031 30.957031 7.074219 38.359375-43.839844 38.359375 43.839844 30.957031-7.074219zm0 0"/></svg>
